<svg width="65" height="23" viewBox="0 0 65 23" fill="none" xmlns="http://www.w3.org/2000/svg">
<path d="M23.68 1.00001L14.59 22H9.78998L0.72998 1.00001H5.97998L12.37 16L18.85 1.00001H23.68Z" fill="#FE9E45"/>
<path d="M24.8333 1.00001H34.3733C36.6533 1.00001 38.6633 1.44001 40.4033 2.32001C42.1633 3.18001 43.5233 4.40001 44.4833 5.98001C45.4633 7.56001 45.9533 9.40001 45.9533 11.5C45.9533 13.6 45.4633 15.44 44.4833 17.02C43.5233 18.6 42.1633 19.83 40.4033 20.71C38.6633 21.57 36.6533 22 34.3733 22H24.8333V1.00001ZM34.1333 18.01C36.2333 18.01 37.9033 17.43 39.1433 16.27C40.4033 15.09 41.0333 13.5 41.0333 11.5C41.0333 9.50001 40.4033 7.92001 39.1433 6.76001C37.9033 5.58001 36.2333 4.99001 34.1333 4.99001H29.6933V18.01H34.1333Z" fill="#FE9E45"/>
<path d="M55.9185 22.36C54.2585 22.36 52.6485 22.14 51.0885 21.7C49.5485 21.24 48.3085 20.65 47.3685 19.93L49.0185 16.27C49.9185 16.93 50.9885 17.46 52.2285 17.86C53.4685 18.26 54.7085 18.46 55.9485 18.46C57.3285 18.46 58.3485 18.26 59.0085 17.86C59.6685 17.44 59.9985 16.89 59.9985 16.21C59.9985 15.71 59.7985 15.3 59.3985 14.98C59.0185 14.64 58.5185 14.37 57.8985 14.17C57.2985 13.97 56.4785 13.75 55.4385 13.51C53.8385 13.13 52.5285 12.75 51.5085 12.37C50.4885 11.99 49.6085 11.38 48.8685 10.54C48.1485 9.70001 47.7885 8.58001 47.7885 7.18001C47.7885 5.96001 48.1185 4.86001 48.7785 3.88001C49.4385 2.88001 50.4285 2.09001 51.7485 1.51001C53.0885 0.930014 54.7185 0.640015 56.6385 0.640015C57.9785 0.640015 59.2885 0.800014 60.5685 1.12001C61.8485 1.44001 62.9685 1.90001 63.9285 2.50001L62.4285 6.19001C60.4885 5.09001 58.5485 4.54001 56.6085 4.54001C55.2485 4.54001 54.2385 4.76001 53.5785 5.20002C52.9385 5.64001 52.6185 6.22001 52.6185 6.94001C52.6185 7.66001 52.9885 8.20001 53.7285 8.56001C54.4885 8.90001 55.6385 9.24001 57.1785 9.58001C58.7785 9.96001 60.0885 10.34 61.1085 10.72C62.1285 11.1 62.9985 11.7 63.7185 12.52C64.4585 13.34 64.8285 14.45 64.8285 15.85C64.8285 17.05 64.4885 18.15 63.8085 19.15C63.1485 20.13 62.1485 20.91 60.8085 21.49C59.4685 22.07 57.8385 22.36 55.9185 22.36Z" fill="#FE9E45"/>
</svg>
